HIERARCHY
ROOT Hips
{
	OFFSET 0.000000 0.000000 0.000000
	CHANNELS 6 Xposition Yposition Zposition Zrotation Yrotation Xrotation 
	JOINT LHipJoint
	{
		OFFSET 0.000000 0.000000 0.000000
		CHANNELS 3 Zrotation Yrotation Xrotation
		JOINT LeftUpLeg
		{
			OFFSET 1.363060 -1.794630 0.839290
			CHANNELS 3 Zrotation Yrotation Xrotation
			JOINT LeftLeg
			{
				OFFSET 2.448110 -6.726130 0.000000
				CHANNELS 3 Zrotation Yrotation Xrotation
				JOINT LeftFoot
				{
					OFFSET 2.562200 -7.039590 0.000000
					CHANNELS 3 Zrotation Yrotation Xrotation
					JOINT LeftToeBase
					{
						OFFSET 0.157640 -0.433110 2.322550
						CHANNELS 3 Zrotation Yrotation Xrotation
						End Site
						{
							OFFSET 0.000000 0.000000 0.000000
						}
					}
				}
			}
		}
	}
	JOINT RHipJoint
	{
		OFFSET 0.000000 0.000000 0.000000
		CHANNELS 3 Zrotation Yrotation Xrotation
		JOINT RightUpLeg
		{
			OFFSET -1.305520 -1.794630 0.839290
			CHANNELS 3 Zrotation Yrotation Xrotation
			JOINT RightLeg
			{
				OFFSET -2.542530 -6.985550 0.000000
				CHANNELS 3 Zrotation Yrotation Xrotation
				JOINT RightFoot
				{
					OFFSET -2.568260 -7.056230 0.000000
					CHANNELS 3 Zrotation Yrotation Xrotation
					JOINT RightToeBase
					{
						OFFSET -0.164730 -0.452590 2.363150
						CHANNELS 3 Zrotation Yrotation Xrotation
						End Site
						{
							OFFSET 0.000000 0.000000 0.000000
						}
					}
				}
			}
		}
	}
	JOINT LowerBack
	{
		OFFSET 0.000000 0.000000 0.000000
		CHANNELS 3 Zrotation Yrotation Xrotation
		JOINT Spine
		{
			OFFSET 0.028270 2.035590 -0.193380
			CHANNELS 3 Zrotation Yrotation Xrotation
			JOINT Spine1
			{
				OFFSET 0.056720 2.048850 -0.042750
				CHANNELS 3 Zrotation Yrotation Xrotation
				JOINT Neck
				{
					OFFSET 0.000000 0.000000 0.000000
					CHANNELS 3 Zrotation Yrotation Xrotation
					JOINT Neck1
					{
						OFFSET -0.054170 1.746240 0.172020
						CHANNELS 3 Zrotation Yrotation Xrotation
						JOINT Head
						{
							OFFSET 0.104070 1.761360 -0.123970
							CHANNELS 3 Zrotation Yrotation Xrotation
							End Site
							{
								OFFSET 0.000000 0.000000 0.000000
							}
						}
					}
				}
				JOINT LeftShoulder
				{
					OFFSET 0.000000 0.000000 0.000000
					CHANNELS 3 Zrotation Yrotation Xrotation
					JOINT LeftArm
					{
						OFFSET 3.362410 1.200890 -0.311210
						CHANNELS 3 Zrotation Yrotation Xrotation
						JOINT LeftForeArm
						{
							OFFSET 4.983000 -0.000000 -0.000000
							CHANNELS 3 Zrotation Yrotation Xrotation
							JOINT LeftHand
							{
								OFFSET 3.483560 -0.000000 -0.000000
								CHANNELS 3 Zrotation Yrotation Xrotation
								JOINT LeftFingerBase
								{
									OFFSET 0.000000 0.000000 0.000000
									CHANNELS 3 Zrotation Yrotation Xrotation
									JOINT LeftHandIndex1
									{
										OFFSET 0.715260 -0.000000 -0.000000
										CHANNELS 3 Zrotation Yrotation Xrotation
										End Site
										{
											OFFSET 0.000000 0.000000 0.000000
										}
									}
								}
								JOINT LThumb
								{
									OFFSET 0.000000 0.000000 0.000000
									CHANNELS 3 Zrotation Yrotation Xrotation
									End Site
									{
										OFFSET 0.000000 0.000000 0.000000
									}
								}
							}
						}
					}
				}
				JOINT RightShoulder
				{
					OFFSET 0.000000 0.000000 0.000000
					CHANNELS 3 Zrotation Yrotation Xrotation
					JOINT RightArm
					{
						OFFSET -3.136600 1.374050 -0.404650
						CHANNELS 3 Zrotation Yrotation Xrotation
						JOINT RightForeArm
						{
							OFFSET -5.241900 -0.000000 -0.000000
							CHANNELS 3 Zrotation Yrotation Xrotation
							JOINT RightHand
							{
								OFFSET -3.444170 -0.000000 -0.000000
								CHANNELS 3 Zrotation Yrotation Xrotation
								JOINT RightFingerBase
								{
									OFFSET 0.000000 0.000000 0.000000
									CHANNELS 3 Zrotation Yrotation Xrotation
									JOINT RightHandIndex1
									{
										OFFSET -0.622530 -0.000000 -0.000000
										CHANNELS 3 Zrotation Yrotation Xrotation
										End Site
										{
											OFFSET 0.000000 0.000000 0.000000
										}
									}
								}
								JOINT RThumb
								{
									OFFSET 0.000000 0.000000 0.000000
									CHANNELS 3 Zrotation Yrotation Xrotation
									End Site
									{
										OFFSET 0.000000 0.000000 0.000000
									}
								}
							}
						}
					}
				}
			}
		}
	}
}
MOTION
Frames: 4
Frame Time: 0.008333
0.750264 17.106810 0.285449 -150.240820 80.823803 -122.921013 -9.824764 -1.614841 1.866361 -11.239830 -10.914010 -51.253538 -0.590959 1.444350 44.144438 3.402223 13.636361 -18.131067 -2.141500 0.000001 -9.435801 9.595382 -2.227071 -2.782742 6.343600 -7.777251 -21.803218 1.258083 -2.690465 35.702408 -0.750989 -3.189815 9.085184 -1.045999 0.000000 -71.967300 -2.075579 0.378641 3.144304 -1.448943 0.503723 -2.802690 -6.609917 0.508580 -1.940383 4.802658 -4.581345 0.242178 -1.054321 -0.191765 1.977946 0.000000 0.000000 0.000000 6.570105 11.798240 -0.231259 -47.076467 47.921966 42.745078 -179.926998 -85.453521 -179.998516 0.405086 -1.667027 -0.006024 -0.030241 0.049079 0.000000 0.000000 0.000000 0.000000 0.000000 0.000000 0.000000 -4.086960 0.184850 -5.265771 82.973647 35.844750 23.015781 179.713594 77.396617 179.957768 -4.134258 9.036154 -0.354399 0.034451 -0.689273 -0.000000 0.000000 0.000000 0.000000 0.000000 0.000000 0.000000 
1.044985 17.148685 0.214894 -152.064928 80.391866 -124.607641 -9.614864 -1.486992 2.100825 -12.107767 -11.209250 -51.302127 -0.836826 1.108786 39.769573 3.417143 13.383723 -17.324779 -1.860400 0.000000 -11.116500 9.634527 -2.240653 -2.859645 5.932543 -7.902018 -21.228168 1.155858 -2.711095 36.240660 -0.885136 -4.054396 9.276465 -1.292200 -0.000000 -69.223000 -2.377971 0.424909 3.024619 -1.500621 0.566558 -2.816979 -6.560921 0.574144 -1.871403 4.807849 -4.710053 0.098302 -1.100633 -0.192370 1.936254 0.000000 0.000000 0.000000 6.643404 12.072761 -0.224633 -48.955367 47.362097 40.268312 -179.868252 -84.262902 -179.998703 0.690855 -2.068248 -0.012964 -0.029876 0.070960 0.000000 0.000000 0.000000 0.000000 0.000000 0.000000 0.000000 -3.947250 0.145136 -5.186851 82.532532 35.667991 22.764334 179.677149 77.264985 179.960787 -3.889701 8.917861 -0.329260 0.033910 -0.686047 -0.000000 0.000000 0.000000 0.000000 0.000000 0.000000 0.000000 
1.341211 17.178193 0.142967 -153.395616 79.911514 -125.825693 -9.434578 -1.351536 2.297307 -13.062859 -11.266483 -51.249260 -1.098841 0.761779 35.434971 3.427734 13.190785 -16.493656 -1.582400 -0.000000 -12.977100 9.661242 -2.267444 -2.906633 5.609087 -7.850362 -20.648388 1.061414 -2.736221 36.949357 -1.038099 -5.075848 8.934854 -1.556300 -0.000001 -66.640700 -2.607767 0.485596 2.905014 -1.538876 0.641381 -2.824361 -6.522101 0.653493 -1.768356 4.849158 -4.828297 -0.099898 -1.164958 -0.193291 1.879050 0.000000 0.000000 0.000000 6.660136 12.440936 -0.180173 -51.108289 46.409285 37.589646 -179.826091 -83.328368 -179.999150 1.027724 -2.531078 -0.023689 -0.030304 0.095335 0.000000 0.000000 0.000000 0.000000 0.000000 0.000000 0.000000 -3.706811 0.118291 -5.093004 82.201764 35.215806 22.534995 179.644319 77.315072 179.964248 -3.609393 8.781477 -0.301011 0.032658 -0.680405 -0.000000 0.000000 0.000000 0.000000 0.000000 0.000000 0.000000 
1.638247 17.195242 0.069349 -154.237790 79.392307 -126.605747 -9.294555 -1.218593 2.437739 -14.112592 -11.055302 -51.087537 -1.378359 0.411854 31.239975 3.413667 12.988277 -15.613906 -1.296700 -0.000000 -14.902300 9.674399 -2.311481 -2.925907 5.377958 -7.621402 -20.040270 0.972090 -2.768276 37.816854 -1.202307 -6.176556 8.178691 -1.799000 0.000000 -64.538000 -2.758003 0.566506 2.805406 -1.561958 0.733628 -2.821103 -6.489322 0.751986 -1.634806 4.909414 -4.922236 -0.341398 -1.244199 -0.194498 1.809014 0.000000 0.000000 0.000000 6.610163 12.890275 -0.103292 -53.455716 45.066922 34.808618 -179.801487 -82.686231 -179.999897 1.399658 -3.023607 -0.038605 -0.031657 0.121116 0.000000 0.000000 0.000000 0.000000 0.000000 0.000000 0.000000 -3.388634 0.117812 -4.986621 81.973949 34.480602 22.316095 179.621282 77.582591 179.967807 -3.326588 8.635178 -0.272755 0.031107 -0.672279 -0.000000 0.000000 0.000000 0.000000 0.000000 0.000000 0.000000 
